<?xml version="1.0" encoding="UTF-8" standalone="no"?>
<!-- Created with Inkscape (http://www.inkscape.org/) -->

<svg
   width="860.11102"
   height="860.11102"
   viewBox="0 0 227.57103 227.57104"
   version="1.1"
   id="svg1"
   inkscape:version="1.3 (0e150ed6c4, 2023-07-21)"
   sodipodi:docname="index.svg"
   inkscape:export-filename="README.png"
   inkscape:export-xdpi="33.484051"
   inkscape:export-ydpi="33.484051"
   xmlns:inkscape="http://www.inkscape.org/namespaces/inkscape"
   xmlns:sodipodi="http://sodipodi.sourceforge.net/DTD/sodipodi-0.dtd"
   xmlns="http://www.w3.org/2000/svg"
   xmlns:svg="http://www.w3.org/2000/svg">
  <sodipodi:namedview
     id="namedview1"
     pagecolor="#ffffff"
     bordercolor="#000000"
     borderopacity="0.25"
     inkscape:showpageshadow="2"
     inkscape:pageopacity="0.0"
     inkscape:pagecheckerboard="0"
     inkscape:deskcolor="#d1d1d1"
     inkscape:document-units="mm"
     inkscape:zoom="0.1552773"
     inkscape:cx="212.52302"
     inkscape:cy="495.88704"
     inkscape:window-width="1366"
     inkscape:window-height="656"
     inkscape:window-x="0"
     inkscape:window-y="44"
     inkscape:window-maximized="1"
     inkscape:current-layer="layer1" />
  <defs
     id="defs1">
    <filter
       inkscape:menu-tooltip="Glowing metal texture"
       inkscape:menu="Bevels"
       inkscape:label="Glowing Metal"
       style="color-interpolation-filters:sRGB"
       id="filter3"
       x="-0.06840504"
       y="-0.045798589"
       width="1.1368101"
       height="1.0915972">
      <feGaussianBlur
         stdDeviation="1"
         result="result10"
         id="feGaussianBlur1" />
      <feBlend
         in2="SourceGraphic"
         result="result5"
         mode="multiply"
         in="result10"
         id="feBlend1" />
      <feComposite
         in2="SourceGraphic"
         in="result5"
         result="fbSourceGraphic"
         operator="over"
         id="feComposite1" />
      <feGaussianBlur
         result="result9"
         stdDeviation="1"
         id="feGaussianBlur2" />
      <feSpecularLighting
         in="result9"
         result="result1"
         lighting-color="#dcdcdc"
         surfaceScale="1"
         specularConstant="2.20000005"
         specularExponent="45"
         id="feSpecularLighting2">
        <fePointLight
           x="-5000"
           y="-10000"
           z="20000"
           id="fePointLight2" />
      </feSpecularLighting>
      <feComposite
         in2="fbSourceGraphic"
         in="result1"
         result="result2"
         operator="in"
         id="feComposite2" />
      <feComposite
         in="result2"
         result="result4"
         operator="arithmetic"
         k2="2"
         k3="0.8"
         in2="fbSourceGraphic"
         id="feComposite3"
         k1="0"
         k4="0" />
      <feBlend
         in="result4"
         in2="result4"
         mode="multiply"
         id="feBlend3" />
    </filter>
  </defs>
  <g
     inkscape:label="Layer 1"
     inkscape:groupmode="layer"
     id="layer1"
     transform="translate(-24.712719,-34.714447)">
    <rect
       style="display:inline;fill:#2b2200;fill-opacity:1;stroke:#0096f4;stroke-width:10.3013;stroke-dasharray:none;stroke-opacity:1"
       id="rect2"
       width="149.94945"
       height="217.26981"
       x="63.523518"
       y="39.865097"
       ry="27.963892"
       rx="51.669468"
       inkscape:label="background" />
    <path
       style="color:#000000;display:inline;fill:#ffcc00;fill-opacity:1;stroke-width:1.03013;-inkscape-stroke:none"
       d="m 115.19284,34.872407 c -15.13355,0 -28.863641,3.232388 -39.220055,8.837355 C 65.61637,49.314729 58.210956,57.756076 58.210956,67.828661 V 229.17134 c 0,10.07259 7.405414,18.51393 17.761829,24.1189 10.356414,5.60497 24.086505,8.83736 39.220055,8.83736 h 46.61079 c 15.13356,0 28.86365,-3.23239 39.22006,-8.83736 10.35642,-5.60497 17.76183,-14.04631 17.76183,-24.1189 V 67.828661 c 0,-10.072585 -7.40541,-18.513932 -17.76183,-24.118899 -10.35641,-5.604967 -24.0865,-8.837355 -39.22006,-8.837355 z m 0,9.986153 h 46.61079 c 13.49131,0 25.59517,3.001248 33.91725,7.505218 8.32208,4.503969 12.43826,10.045488 12.43826,15.464883 V 229.17134 c 0,5.41939 -4.11618,10.96092 -12.43826,15.46488 -8.32208,4.50398 -20.42594,7.50523 -33.91725,7.50523 h -46.61079 c -13.4913,0 -25.595164,-3.00125 -33.917242,-7.50523 -8.322079,-4.50396 -12.438262,-10.04549 -12.438262,-15.46488 V 67.828661 c 0,-5.419395 4.116183,-10.960914 12.438262,-15.464883 8.322078,-4.50397 20.425942,-7.505218 33.917242,-7.505218 z"
       id="rect1"
       inkscape:label="edge" />
    <g
       id="g7"
       inkscape:label="sane"
       transform="matrix(0.97544137,0,0,0.98454709,2.4474279,2.3169167)">
      <path
         style="opacity:0.8;fill:#ffff21;fill-opacity:1;stroke:none;stroke-width:8.91341;stroke-linecap:round;stroke-linejoin:round;stroke-opacity:1;paint-order:stroke fill markers"
         d="m 118.80778,116.02677 v 67.89725 l 20.66836,-14.24327 20.66839,14.24327 v -67.98009 z"
         id="path7"
         sodipodi:nodetypes="cccccc"
         inkscape:label="star-bottom" />
    </g>
    <path
       id="path3"
       style="display:inline;fill:#ffff21;stroke-width:19.0349"
       inkscape:label="star"
       inkscape:transform-center-x="0.40955455"
       inkscape:transform-center-y="-3.1731746"
       d="m 138.40363,140.32754 -4.30469,2.17418 -3.61103,-3.19655 -4.71015,1.03534 -2.70262,-3.99415 -4.81964,-0.16861 -1.62441,-4.54078 -4.62632,-1.36186 -0.44412,-4.80212 -4.14229,-2.46958 0.76407,-4.76168 -3.398,-3.42215 1.92424,-4.42206 -2.44018,-4.15969 2.96351,-3.80459 -1.32905,-4.635848 3.81658,-2.948082 -0.13442,-4.82072 4.42983,-1.90632 1.06868,-4.702693 4.76473,-0.744776 2.20462,-4.289181 4.80026,0.463566 3.20204,-3.606163 4.53418,1.642779 3.99823,-2.696556 3.9832,2.718769 4.54323,-1.617514 3.18191,3.62393 4.80277,-0.436838 2.1807,4.301387 4.76053,0.771285 1.04247,4.708568 4.41916,1.930951 -0.16121,4.819898 3.80011,2.969279 -1.35484,4.628389 2.94228,3.82102 -2.46329,4.14602 1.8996,4.43272 -3.41699,3.40319 0.73755,4.76586 -4.15599,2.44648 -0.47083,4.79955 -4.63385,1.33609 -1.64964,4.53166 -4.8205,0.14174 -2.72482,3.97906 -4.7043,-1.06155 -3.62876,3.1764 z"
       sodipodi:nodetypes="ccccccccccccccccccccccccccccccccccccccccccccccccccc" />
  </g>
</svg>
